-
 
http://www.Speed. Cd       the fast  and The Hottest Private Tracker on the net 
http://www.Speed. Cd

Please Seed back to make the speed Faster!!
 ............ NFO .............
-
 
http://www.Speed. Cd                                                                                                                                  .i:                 
        .iii:.          :;::::::::::r     ri:::::::::i:    .i:r.           i::i    :i:::      :::i    .i.:.:::.:.:i             .7:                   
    .a@B@@@@@B@Ba.      2B@@@@@@@B@B@i    BB@B@@@@@B@B@    :@B@r           W@@@    7@B@@      MB@B    7@@B@@@B@@@@@r          .MB.                    
   SB@BZ;.  .7Z@B@2     .@BW       .2.    7@B2       :2     B@B            7B@2    .@ZM@B     7@B2    .@Za       .7.         iBZ.             ..      
  ZB@B.        .@B@0    .@ZM272222272Z2   7BZS27222727SBi   @B@            ;@B2    .@WWZ@@:   7B@2    .BMa777777772W2       .ZM2               S      
 :@@B            B@@7   .@MBB@@@B@B@B@B   7@MB@@B@@@B@B@2   BBB            7@@2    .BZ2.Z@@7  ;BB2    .@0MB@B@B@B@B@B       2Za2               @:     
 W@B:            .@@@   .@Ba         .;   7BB7         i:   @ZB            ;@B2    .@Za  W@B2 :BB2    .BMS         .i       S0SW.             :B7     
.ZBB              ZB@.  .@BW              7@B7              BZZ            ;BB2    .@ZS   2@@27MZ2    .BMa                  rZ20W.           .Z@:     
7Z@a              WB@.  .BBW              7@@7              BZB            i@Z2    .@Z0    r@ZWSZ7    .ZMa          .;22227. SS20Z7        .2Z@S      
;ZB0              WBB:  .@ZW              7@B7              ZZZ            ;ZZ7    .ZZS     .ZWSM7    .BW0       .0@B@B@B@@B0S2SSaMZa277720BZBa       
.MBZ              @Z@   .@B0              7BB7              BMZ            iBZ7    .BMS       0SZ7    .ZWS      2B2:.   :2BZWSS2S2SSWWZMZWWaa;        
 SB@r            7BBa   .@ZW              7BZ7              ZMM            ;BZ7    .ZMS       rMM7    .Zaa     7r          7B0SS2SSSSS2S2SS7          
  @Z@.          iBZB.   .BZa              7ZZ7              ZWM            S@BM    .Z0S       ;WM7    .M02                  ;BaSS2SSS2S2SSaSMM07.     
  7@B@;        2@@Bi    .BMa              ;ZZ7              M0a                    .MW2       rZ07    .MS2                   0MSSSSaSSSa0ZB@@@@@B0    
   :ZB@BS7;;7a@@@a.     .BZS              7ZZ7              Zaa7;;77772Z:  :..:    .Z02       ;W07    .WS2;i;;;;;7M:         7BSaSSSaSMBZ2r...:;a@@i  
     i2Z@@@@B@M2.       7@B@.             0@BZ             :BZM@B@@@@@B@i  ZB@Z    7@ZZ       iWa7    ;@0MZ@BBBBB@Br         SZ0SaSaaZB7          S@. 
         ....           .....             ...:.            .............    ...    ....       2ZZ2    .............         iBM0Ma0aZB.            2B 
                                                                                              i;i7                         7BBB@aZ0WB;              2 
                                                                                                                 .;:.   :2@@@BB. BZW@               . 
                                                                                                                  .7W@@@B@BB2:   Z@Z@.                
                                                                                                                                  @B@M                
                                                                                                                                   W@@B               
                                                                                                                                    .a@BB;.           
                                                                                                                                        :7;i.



[IMG]http://i.imgur.com/IQdCQxx.jpg[/IMG]

The Call 2013 TS x264 AAC-OFFLiNE

iMDB  http://www.imdb.com/title/tt1911644

Source  vid 720p UnKnOwN aud TS.DIVX-DUQA  -  MANY THANKX

Got the 720p file, rotated it slightly to straighten it up, then cropped, resized, messed with gamma, bright, contrast, levels and sharpen.

Media Info
The Call 2013 TS x264 AAC-OFFLiNE.mp4
Format                                   : MPEG-4
Format profile                           : Base Media
Codec ID                                 : isom
File size                                : 1.41 GiB
Duration                                 : 1h 32mn
Overall bit rate mode                    : Variable
Overall bit rate                         : 2 178 Kbps
Encoded date                             : UTC 2013-03-28 17:54:12
Tagged date                              : UTC 2013-03-28 17:54:12

Video
ID                                       : 1
Format                                   : AVC
Format/Info                              : Advanced Video Codec
Format profile                           : High@L4.1
Format settings, CABAC                   : Yes
Format settings, ReFrames                : 3 frames
Format settings, GOP                     : M=4, N=29
Codec ID                                 : avc1
Codec ID/Info                            : Advanced Video Coding
Duration                                 : 1h 27mn
Bit rate mode                            : Variable
Bit rate                                 : 2 174 Kbps
Maximum bit rate                         : 40.0 Mbps
Width                                    : 720 pixels
Height                                   : 388 pixels
Display aspect ratio                     : 1.85:1
Frame rate mode                          : Constant
Frame rate                               : 29.970 fps
Color space                              : YUV
Chroma subsampling                       : 4:2:0
Bit depth                                : 8 bits
Scan type                                : Progressive
Bits/(Pixel*Frame)                       : 0.260
Stream size                              : 1.33 GiB (95%)
Title                                    : 264#trackID=1:fps=29.97@GPAC0.5.1-DEV-rev4283
Writing library                          : x264 core 130 r2273 b3065e6

Audio
ID                                       : 2
Format                                   : AAC
Format/Info                              : Advanced Audio Codec
Format profile                           : LC
Codec ID                                 : 40
Duration                                 : 1h 32mn
Bit rate mode                            : Variable
Bit rate                                 : 111 Kbps
Maximum bit rate                         : 142 Kbps
Channel(s)                               : 2 channels
Channel positions                        : Front: L R
Sampling rate                            : 44.1 KHz
Compression mode                         : Lossy
Stream size                              : 73.6 MiB (5%)

Screens
[IMG]http://i.imgur.com/i69iK98.png[/IMG]
[IMG]http://i.imgur.com/3MJtLN6.png[/IMG]
[IMG]http://i.imgur.com/1OgNJoB.png[/IMG]
[IMG]http://i.imgur.com/kC6BNGO.png[/IMG]
[IMG]http://i.imgur.com/YgEAHUI.png[/IMG]
[IMG]http://i.imgur.com/87sRBRL.png[/IMG]
[IMG]http://i.imgur.com/SCnWksk.png[/IMG]
[IMG]http://i.imgur.com/EGnptQN.png[/IMG]

Greetz

THC, PA, HELLRAZ0R, TRiNiTY, FLAWL3SS, FraMeSToR, many more, and all our friends